<svg width="168" height="40" viewBox="0 0 168 40" fill="none" xmlns="http://www.w3.org/2000/svg">
<path d="M14 16C14.5523 16 15 16.4477 15 17C15 17.5523 14.5523 18 14 18C13.4477 18 13 17.5523 13 17C13 16.4477 13.4477 16 14 16Z" stroke="#FFCA42" stroke-width="1.5"/>
<path d="M21 16C21.5523 16 22 16.4477 22 17C22 17.5523 21.5523 18 21 18C20.4477 18 20 17.5523 20 17C20 16.4477 20.4477 16 21 16Z" stroke="#FFCA42" stroke-width="1.5"/>
<path d="M28 16C28.5523 16 29 16.4477 29 17C29 17.5523 28.5523 18 28 18C27.4477 18 27 17.5523 27 17C27 16.4477 27.4477 16 28 16Z" stroke="#FFCA42" stroke-width="1.5"/>
</svg>
